<svg width="32" height="32" viewBox="0 0 32 32" fill="none" xmlns="http://www.w3.org/2000/svg">
<path fill-rule="evenodd" clip-rule="evenodd" d="M11.9855 9.49273C12.1827 9.07024 12.6067 8.8002 13.0729 8.8002H18.9255C19.3917 8.8002 19.8158 9.07024 20.0129 9.49273L20.8743 11.3385L21.0897 11.8002H21.5992H23.9992C24.662 11.8002 25.1992 12.3375 25.1992 13.0002V22.0002C25.1992 22.6629 24.662 23.2002 23.9992 23.2002H7.99922C7.33648 23.2002 6.79922 22.6629 6.79922 22.0002V13.0002C6.79922 12.3375 7.33648 11.8002 7.99922 11.8002H10.3992H10.9087L11.1242 11.3385L11.9855 9.49273ZM13.0729 7.2002C11.9851 7.2002 10.9957 7.83031 10.5356 8.81612L9.88973 10.2002H7.99922C6.45282 10.2002 5.19922 11.4538 5.19922 13.0002V22.0002C5.19922 23.5466 6.45282 24.8002 7.99922 24.8002H23.9992C25.5456 24.8002 26.7992 23.5466 26.7992 22.0002V13.0002C26.7992 11.4538 25.5456 10.2002 23.9992 10.2002H22.1087L21.4628 8.81612C21.0028 7.83031 20.0134 7.2002 18.9255 7.2002H13.0729ZM18.3992 17.0002C18.3992 18.3257 17.3247 19.4002 15.9992 19.4002C14.6737 19.4002 13.5992 18.3257 13.5992 17.0002C13.5992 15.6747 14.6737 14.6002 15.9992 14.6002C17.3247 14.6002 18.3992 15.6747 18.3992 17.0002ZM19.9992 17.0002C19.9992 19.2093 18.2084 21.0002 15.9992 21.0002C13.7901 21.0002 11.9992 19.2093 11.9992 17.0002C11.9992 14.7911 13.7901 13.0002 15.9992 13.0002C18.2084 13.0002 19.9992 14.7911 19.9992 17.0002Z" fill="black"/>
</svg>
