<svg width="32" height="32" viewBox="0 0 32 32" fill="none" xmlns="http://www.w3.org/2000/svg">
<path fill-rule="evenodd" clip-rule="evenodd" d="M10.7304 17.2563L15.0219 21.5478C15.3343 21.8602 15.3343 22.3667 15.0219 22.6791C14.7095 22.9916 14.203 22.9916 13.8906 22.6791L8.24164 17.0302C8.22827 17.0169 8.21547 17.0031 8.20325 16.9891C8.14316 16.9219 8.0964 16.847 8.06296 16.7679C8.0231 16.6737 8.00076 16.5703 8.00002 16.4618C8.00001 16.46 8 16.4581 8 16.4562C8 16.4533 8.00002 16.4504 8.00005 16.4475C8.00115 16.3446 8.0217 16.2463 8.05818 16.1562C8.09723 16.0595 8.15594 15.9689 8.23431 15.8906L13.8906 10.2343C14.203 9.9219 14.7095 9.92189 15.0219 10.2343C15.3343 10.5467 15.3343 11.0533 15.0219 11.3657L10.7314 15.6562H23.2C23.6418 15.6562 24 16.0144 24 16.4562C24 16.8981 23.6418 17.2563 23.2 17.2563H10.7304Z" fill="white"/>
</svg>
