<svg width="32" height="32" viewBox="0 0 32 32" fill="none" xmlns="http://www.w3.org/2000/svg">
<path fill-rule="evenodd" clip-rule="evenodd" d="M18.9851 8.28571V16.4122C18.9851 17.8955 17.7827 19.0979 16.2994 19.0979C14.8161 19.0979 13.6137 17.8955 13.6137 16.4122V8.28572C13.6137 6.80244 14.8161 5.6 16.2994 5.6C17.7827 5.6 18.9851 6.80244 18.9851 8.28571ZM12.0137 8.28572C12.0137 5.91878 13.9325 4 16.2994 4C18.6663 4 20.5851 5.91878 20.5851 8.28571V16.4122C20.5851 18.7791 18.6663 20.6979 16.2994 20.6979C13.9325 20.6979 12.0137 18.7791 12.0137 16.4122V8.28572ZM8.8 13.1162C9.24183 13.1162 9.6 13.4744 9.6 13.9162V16.3306C9.6 20.0309 12.5997 23.0306 16.3 23.0306C20.0003 23.0306 23 20.0309 23 16.3306V13.9162C23 13.4744 23.3582 13.1162 23.8 13.1162C24.2418 13.1162 24.6 13.4744 24.6 13.9162V16.3306C24.6 20.6446 21.3087 24.1899 17.1002 24.5925V28.0002H15.5002V24.5926C11.2915 24.1902 8 20.6448 8 16.3306V13.9162C8 13.4744 8.35817 13.1162 8.8 13.1162Z" fill="black"/>
</svg>
