<svg width="28" height="20" viewBox="0 0 28 20" fill="none" xmlns="http://www.w3.org/2000/svg">
<g id="Frame 1437253399">
<g id="Vector">
<path d="M21.7584 10.5742C22.0708 10.2617 22.0708 9.75522 21.7584 9.4428C21.4459 9.13038 20.9394 9.13038 20.627 9.4428L14.9781 15.0917C14.6657 15.4041 14.6657 15.9107 14.9781 16.2231C15.2905 16.5355 15.797 16.5355 16.1094 16.2231L21.7584 10.5742Z" fill="white"/>
<path d="M21.7657 10.5659C22.0781 10.2534 22.0781 9.74692 21.7657 9.4345L16.1094 3.77826C15.797 3.46584 15.2905 3.46584 14.9781 3.77826C14.6657 4.09068 14.6657 4.59721 14.9781 4.90963L20.6343 10.5659C20.9467 10.8783 21.4533 10.8783 21.7657 10.5659Z" fill="white"/>
</g>
<rect id="Rectangle 92412" width="16" height="1.6" rx="0.8" transform="matrix(-1 0 0 1 22 9.2002)" fill="white"/>
</g>
</svg>
